<svg width="19" height="18" viewBox="0 0 19 18" fill="none" xmlns="http://www.w3.org/2000/svg">
<path d="M1.4508 1.31672L1.30667 1.50063C1.06883 1.80411 0.868085 2.15666 0.718004 2.53912C0.578233 2.9079 0.493199 3.25427 0.454399 3.59771L0.45406 3.60071C0.108889 6.46216 1.39035 9.13196 5.14793 12.8896C10.2402 17.9815 14.3052 17.6029 14.4439 17.5887C14.8048 17.5453 15.1506 17.4591 15.5044 17.3217C15.8835 17.1736 16.2362 16.973 16.5401 16.7353L16.6855 16.6215L17.3161 16.0041C17.3166 16.0036 17.3171 16.0031 17.3175 16.0026C17.7438 15.5739 17.741 14.909 17.3533 14.5198C17.3532 14.5197 17.3531 14.5196 17.353 14.5195L14.568 11.7341C14.5678 11.734 14.5677 11.7338 14.5675 11.7337C14.1781 11.3463 13.5125 11.3443 13.0849 11.7721L13.0848 11.7721L11.6812 13.1755L11.4686 13.388L11.2053 13.2429C11.1159 13.1937 11.0236 13.1423 10.9266 13.0879C10.9262 13.0877 10.9259 13.0875 10.9256 13.0873L11.1214 12.7385C10.235 12.2474 9.02179 11.5742 7.74517 10.2967L1.4508 1.31672ZM1.4508 1.31672L2.03848 0.725661L1.4508 1.31672ZM0.0569484 3.55281L0.0569273 3.55281L0.0569484 3.55281Z" stroke="#956D84" stroke-width="0.8"/>
</svg>
