<svg width="17" height="17" viewBox="0 0 17 17" fill="none" xmlns="http://www.w3.org/2000/svg">
<path d="M1.32297 1.21015L1.19647 1.37156C0.987877 1.63772 0.811582 1.94721 0.679693 2.28324C0.556693 2.60783 0.482099 2.91202 0.448074 3.21321L0.447735 3.21621C0.143441 5.73878 1.27004 8.09887 4.60735 11.4362C4.60736 11.4362 4.60736 11.4362 4.60737 11.4363M1.32297 1.21015L4.32452 11.7191L4.60737 11.4363M1.32297 1.21015L1.84342 0.686708C1.84354 0.686588 1.84366 0.686468 1.84378 0.686348C2.2088 0.321601 2.77229 0.326557 3.0983 0.652438C3.09832 0.652457 3.09833 0.652477 3.09835 0.652496L5.5747 3.1294C5.90145 3.45655 5.90628 4.01994 5.54162 4.3847L5.54149 4.38483L5.13018 4.79665L5.12979 4.79703L4.29279 5.63279L4.07639 5.84888L4.22817 6.11437C4.26413 6.17728 4.30049 6.24305 4.33978 6.31414C4.34631 6.32595 4.35292 6.3379 4.35962 6.35002L4.35995 6.3506L4.36487 6.35946C4.80516 7.15219 5.42607 8.27011 6.60165 9.44558C7.77795 10.6227 8.89784 11.2433 9.69094 11.6828C9.7772 11.7312 9.85935 11.7769 9.93879 11.8207L10.2021 11.9658L10.4147 11.7532L11.6624 10.5058L11.6625 10.5057C12.0262 10.1418 12.5898 10.1457 12.9175 10.4717C12.9177 10.4718 12.9178 10.4719 12.9179 10.4721L15.3934 12.9479L1.32297 1.21015ZM4.60737 11.4363C9.11722 15.9458 12.7132 15.6128 12.8341 15.6005C13.1511 15.5623 13.4547 15.4867 13.7656 15.3659C14.0986 15.2358 14.4084 15.0596 14.6749 14.8511L14.8022 14.7515L15.3621 14.2032C15.7244 13.8385 15.7199 13.2759 15.3939 12.9483L4.60737 11.4363ZM4.70963 6.15638C4.70306 6.1445 4.69653 6.13269 4.69003 6.12094C4.65084 6.05003 4.61293 5.98145 4.57542 5.91584L4.70963 6.15638Z" stroke="#956D84" stroke-width="0.8"/>
</svg>
