<svg width="18" height="12" viewBox="0 0 18 12" fill="none" xmlns="http://www.w3.org/2000/svg">
<path d="M14.574 9.25537C14.5026 9.25537 14.4312 9.23346 14.3755 9.18916L11.0358 6.56108C10.9191 6.46955 10.9133 6.31521 11.023 6.21736C11.1327 6.11852 11.3155 6.11414 11.4333 6.20664L14.7731 8.83472C14.8898 8.92625 14.8956 9.08059 14.7859 9.17845C14.7284 9.22957 14.6518 9.25537 14.574 9.25537Z" fill="#956D84"/>
<path d="M3.42576 9.25598C3.34856 9.25598 3.27136 9.23018 3.2139 9.17905C3.1042 9.08119 3.11 8.92684 3.22667 8.83531L6.56763 6.20707C6.68488 6.11554 6.86887 6.11943 6.97799 6.21778C7.0877 6.31565 7.08189 6.46999 6.96522 6.56153L3.62426 9.18976C3.56854 9.23407 3.49715 9.25598 3.42576 9.25598Z" fill="#956D84"/>
<path d="M16.5489 11.6992H1.45105C0.651232 11.6992 0 11.1534 0 10.482V2.18207C0 1.51065 0.651232 0.669922 1.45105 0.669922H16.5489C17.3488 0.669922 18 1.51065 18 2.18207V10.482C18 11.1534 17.3488 11.6992 16.5489 11.6992ZM1.45105 1.61365C0.971043 1.61365 1.125 1.77941 1.125 2.18207V10.5788C1.125 10.9815 0.971043 10.7229 1.45105 10.7229H16.5489C17.029 10.7229 16.875 10.8847 16.875 10.482V2.08548C16.875 1.68283 17.029 1.61365 16.5489 1.61365H1.45105Z" fill="#956D84"/>
<path d="M9.00017 7.55542C8.61419 7.55542 8.22821 7.44782 7.93452 7.2331L0.481918 1.77954C0.36119 1.69142 0.348421 1.53756 0.453477 1.4358C0.559694 1.33453 1.00441 1.0547 1.12514 1.14185L8.43764 6.33219C8.80853 6.60339 9.19233 6.60339 9.56264 6.33219L16.8751 1.14183C16.6231 0.862483 17.4302 1.34281 17.537 1.44457C17.6421 1.54633 17.6299 1.69969 17.5091 1.78831L10.0658 7.23262C9.77155 7.44782 9.38615 7.55542 9.00017 7.55542Z" fill="#956D84"/>
</svg>
